<svg width="112" height="67" viewBox="0 0 112 67" fill="none" xmlns="http://www.w3.org/2000/svg">
<path d="M110.421 66.8333C101.405 65.1321 92.4361 63.335 83.3485 62.0412C74.3964 60.7889 65.338 60.4917 56.3239 61.1546C39.148 62.4484 22.1386 66.7374 4.79615 65.731C-3.95187 65.4072 -12.5247 63.1669 -20.3254 59.1659C-20.4445 59.0853 -20.5358 58.9694 -20.5865 58.8342C-20.6371 58.699 -20.6447 58.5511 -20.608 58.4114C-20.5714 58.2717 -20.4924 58.147 -20.382 58.0546C-20.2717 57.9622 -20.1355 57.9067 -19.9924 57.896L5.03399 59.8128C13.384 60.4357 21.6865 60.8191 30.0842 61.5379C31.3212 61.5379 31.345 63.5746 30.0842 63.4787C21.7341 62.8797 13.4316 61.9453 5.03399 61.2744L-19.9924 59.2377C-19.9924 58.8304 -19.7782 58.4231 -19.6593 57.9918C-5.00506 66.0425 12.3611 64.9883 28.2762 62.3047C37.0545 60.8191 45.7614 59.046 54.6348 58.1595C63.431 57.3521 72.2898 57.5531 81.041 58.7585C91.125 60.182 101.118 62.1982 110.968 64.7966C112.229 65.1081 111.682 67.001 110.421 66.7614V66.8333Z" fill="black" fill-opacity="0.1"/>
<path d="M108.684 66.4978C95.4098 61.1067 80.137 63.5507 67.8141 55.3562C61.9942 51.1463 56.7197 46.2202 52.1132 40.6924C47.1415 35.1219 42.4947 29.2657 38.1964 23.1533C33.4091 16.222 29.0169 9.02221 25.0409 1.58883C24.9466 1.41726 24.9098 1.2196 24.936 1.02528C24.9623 0.830963 25.0501 0.650368 25.1864 0.510361C25.3228 0.370354 25.5004 0.278473 25.6927 0.248291C25.8851 0.218117 26.082 0.251297 26.2541 0.342911C32.7724 4.22451 39.5286 8.10611 43.5728 14.7192C47.617 21.3323 48.5924 29.4789 52.589 36.1399C52.6962 36.321 52.7276 36.5376 52.6763 36.7421C52.625 36.9465 52.4952 37.122 52.3154 37.2301C52.1355 37.3381 51.9205 37.3698 51.7175 37.3181C51.5145 37.2664 51.3402 37.1357 51.233 36.9545C47.4029 30.5571 45.6187 23.2491 41.9551 16.8038C38.2916 10.3584 31.7495 5.75797 25.3026 1.82845C25.707 1.42112 26.1352 1.01375 26.5396 0.582458C30.0537 6.96536 33.9629 13.1194 38.244 19.0081C42.5328 25.0766 47.1635 30.8926 52.1132 36.4274C56.7209 41.8876 61.8262 46.9013 67.3621 51.4027C73.0249 55.5672 79.5883 58.3181 86.5125 59.4294C94.1489 60.915 102.095 61.6338 109.136 65.156C109.826 65.4915 109.35 66.6895 108.637 66.4019L108.684 66.4978Z" fill="black" fill-opacity="0.1"/>
<path d="M74.7368 59.6211C70.1922 55.0001 65.3009 50.7385 60.1064 46.8741C55.2086 43.4204 49.7736 40.8129 44.0248 39.1589C33.3671 36.068 22.1624 35.445 11.481 32.4499C5.61156 30.9325 0.0977798 28.2617 -4.74339 24.5909L-3.43501 23.297C7.94757 34.6838 23.0624 41.499 39.0766 42.4654C43.6187 42.7501 48.1783 42.4928 52.6603 41.6987C52.818 41.6514 52.984 41.639 53.1469 41.6623C53.3099 41.6857 53.4659 41.7442 53.6043 41.8339C53.7426 41.9237 53.8601 42.0425 53.9486 42.1822C54.0371 42.3219 54.0947 42.4792 54.1172 42.6434C54.1398 42.8076 54.1268 42.9748 54.0792 43.1335C54.0316 43.2921 53.9506 43.4386 53.8416 43.5628C53.7326 43.6869 53.5982 43.7859 53.4477 43.8529C53.2972 43.9199 53.1341 43.9534 52.9696 43.951C36.5997 46.1437 19.9878 42.4256 6.08073 33.4562C2.17927 30.9116 -1.44834 27.9646 -4.74339 24.6628C-5.59981 23.8002 -4.339 22.6501 -3.43501 23.3689C5.53358 30.3893 17.0477 32.2343 27.967 34.0074C38.8863 35.7804 50.2813 37.9129 59.7495 44.5021C65.4785 48.7517 70.8205 53.5067 75.7122 58.7106C76.3545 59.3336 75.3792 60.316 74.7368 59.693V59.6211Z" fill="black" fill-opacity="0.1"/>
<path d="M109.874 66.5935C104.944 65.2418 100.381 62.7844 96.5279 59.4054C92.4194 56.0099 88.6071 52.2663 85.1328 48.2158C77.1871 39.2306 68.9798 30.3173 61.8668 20.6373C58.0075 15.679 54.8528 10.2033 52.4938 4.3681C52.2321 3.6972 53.3026 3.40969 53.5405 4.08058C55.6414 9.25319 58.4695 14.0948 61.9382 18.4569C65.34 22.8656 69.2891 26.8191 72.9526 31.0122L84.8473 44.6936C88.147 48.5838 91.6741 52.2723 95.4098 55.7394C97.57 57.7267 99.9028 59.5148 102.38 61.0825C104.896 62.5495 107.53 63.7998 110.254 64.8204C110.455 64.9006 110.619 65.0522 110.716 65.2463C110.813 65.4405 110.836 65.6637 110.78 65.8736C110.724 66.0834 110.594 66.2654 110.413 66.3849C110.233 66.5044 110.016 66.553 109.802 66.5216L109.874 66.5935Z" fill="black" fill-opacity="0.1"/>
</svg>
