<svg width="215" height="326" viewBox="0 0 215 326" fill="none" xmlns="http://www.w3.org/2000/svg">
<g clip-path="url(#clip0_505_828)">
<path d="M246.314 56.8765C243.538 59.1335 240.302 60.7534 236.834 61.6219C233.366 62.4904 229.75 62.5865 226.241 61.9034C223.903 61.4522 221.459 61.4093 219.078 61.173C220.341 62.9793 221.952 64.5133 223.818 65.6842C228.233 68.448 231.39 72.837 232.61 77.9077C232.688 79.1755 232.497 80.4454 232.05 81.6339C231.602 82.8224 230.909 83.9027 230.015 84.8037C228.257 86.5437 226.348 84.2021 225.169 82.6554C221.287 77.7359 216.591 73.0957 214.039 67.5103C210.736 60.1203 204.539 56.5542 198.727 52.1503C206.19 62.2717 210.307 74.4777 210.5 87.0593C210.5 89.9809 211.916 90.7543 214.403 91.0336C220.3 91.7397 225.681 94.749 229.375 99.4072C233.07 104.065 234.779 109.996 234.133 115.91C234.004 117.199 233.168 119.111 232.224 119.39C231.526 119.427 230.829 119.318 230.175 119.07C229.522 118.823 228.927 118.441 228.428 117.951C225.533 115.481 222.831 112.774 220.065 110.153L219.507 109.745L219.85 110.368C219.988 111.357 220.203 112.334 220.494 113.289C222.537 119.473 222.716 126.123 221.008 132.409C220.45 133.754 219.659 134.991 218.671 136.061C217.706 135.33 216.398 134.836 215.797 133.913C211.496 127.735 208.671 120.649 207.541 113.203C206.306 117.316 204.764 121.33 202.93 125.212C199.795 130.786 198.455 137.193 199.091 143.558C199.031 147.701 198.759 151.838 198.277 155.954C198.277 156.963 199.006 158.725 199.735 158.94C213.91 163.064 219.55 175.889 227.613 186.244C229.35 188.392 228.021 190.54 225.083 190.433C222.622 190.391 220.194 189.858 217.942 188.865C209.352 184.595 202.174 177.935 197.269 169.681C196.175 174.966 195.532 179.863 194.138 184.525C192.251 190.777 189.441 196.62 183.672 200.379C180.992 202.119 178.719 201.668 178.161 199.026C177.367 195.81 177.056 192.494 177.239 189.187C177.67 184.531 179.032 180.009 181.242 175.891C183.453 171.772 186.467 168.141 190.106 165.212C191.796 163.892 193.112 162.152 193.923 160.164C195.932 153.62 196.567 146.73 195.789 139.928C191.286 145.32 187.211 150.368 182.922 155.137C175.042 163.735 165.919 171.099 155.858 176.985C154.671 177.56 153.688 178.486 153.044 179.639C152.399 180.792 152.124 182.115 152.255 183.43C152.448 187.253 152.255 191.099 152.384 194.923C152.641 204.225 153.585 213.247 162.463 218.919C162.735 219.116 162.974 219.355 163.171 219.628C167.771 224.73 170.29 231.378 170.226 238.253C170.226 241.26 168.296 242.356 165.616 241.088C164.773 240.567 163.996 239.947 163.3 239.241C157.338 233.978 152.127 228.178 149.961 220.745C147.551 224.279 144.922 227.658 142.09 230.863C140.868 232.109 138.209 231.915 136.193 232.367C135.556 230.619 135.244 228.77 135.271 226.91C136.987 219.219 140.482 212.646 147.881 208.779C148.458 208.377 148.933 207.845 149.268 207.225C149.604 206.606 149.789 205.917 149.811 205.213C149.639 197.887 149.21 190.583 148.76 183.279C148.76 182.914 147.237 182.184 147.044 182.334C142.262 186.416 136.794 189.982 133.041 194.858C126.114 203.924 126.929 214.364 130.274 224.74C135.057 239.585 150.561 255.997 169.068 253.999C171.137 253.851 173.119 253.105 174.773 251.851C177.876 249.383 181.36 247.439 185.088 246.094C191.589 244.265 198.182 242.78 204.839 241.647C206.297 241.346 208.742 241.389 209.299 242.227C209.697 243.005 209.932 243.855 209.991 244.727C210.05 245.598 209.931 246.473 209.642 247.297C208.651 249.861 207.106 252.174 205.119 254.072C203.132 255.97 200.752 257.404 198.148 258.274C192.529 260.552 186.782 259.8 180.992 259.198H180.713H180.992L186.203 262.098C189.646 263.948 192.606 266.585 194.842 269.795C197.077 273.005 198.526 276.697 199.07 280.573C199.928 286.266 197.183 288.157 192.1 285.622C188.319 283.841 184.726 281.682 181.378 279.177C174.944 274.086 169.84 268.006 170.87 258.94C171.127 256.792 169.776 256.964 168.425 256.986C153.993 257.243 143.077 250.67 134.52 239.499C132.976 237.501 131.475 235.46 129.974 233.441C129.974 234.203 130.075 234.961 130.274 235.696C134.456 246.438 138.209 257.544 147.237 265.621C154.143 271.787 156.051 280.23 156.952 288.887C157.124 290.498 155.451 292.303 154.636 294.021C153.206 293.355 151.866 292.51 150.647 291.508C143.877 284.516 138.71 276.129 135.507 266.932C134.628 268.779 133.898 270.455 133.062 272.088C130.777 276.957 126.752 280.79 121.782 282.829C117.021 284.741 113.869 282.679 115.005 278.124C116.389 272.52 118.374 267.082 120.924 261.905C121.888 259.847 123.347 258.061 125.17 256.708C126.992 255.354 129.122 254.475 131.368 254.15C134.628 253.742 134.306 252.839 133.041 250.67C131.812 248.699 130.812 246.595 130.06 244.397C128.382 239.24 127.007 233.989 125.942 228.672C125.394 224.332 125.115 219.963 125.106 215.589C123.31 217.548 121.748 219.711 120.452 222.034C114.705 230.369 109.087 231.314 102.181 229.896C98.364 229.101 97.8922 227.426 100.037 224.289C105.698 216.405 112.368 209.853 122.511 208.328C124.034 208.091 124.656 207.855 124.87 206.072C125.245 202.246 126.404 198.539 128.274 195.182C130.145 191.826 132.688 188.893 135.743 186.566C142.412 181.41 149.446 176.684 156.502 171.979C163.854 167.381 170.506 161.745 176.253 155.245C173.147 155.065 170.031 155.304 166.988 155.954C158.796 157.908 150.754 160.551 142.477 162.055C140.274 162.273 138.193 163.169 136.519 164.619C134.845 166.069 133.66 168.002 133.126 170.153C131.508 175.015 129.433 179.712 126.929 184.181C125.468 186.613 123.541 188.731 121.259 190.412C118.977 192.094 116.385 193.305 113.633 193.977C109.944 195.009 108.186 193.354 108.765 189.681C108.961 188.706 109.241 187.75 109.601 186.824C112.727 177.935 118.359 170.145 125.814 164.396L120.581 163.322C114.426 162.033 108.658 159.992 105.098 154.407C104.566 153.656 104.2 152.8 104.027 151.895C103.853 150.991 103.874 150.06 104.09 149.165C104.72 148.458 105.499 147.898 106.37 147.527C107.241 147.156 108.183 146.981 109.129 147.017C113.614 147.073 118.043 148.021 122.159 149.806C126.274 151.591 129.995 154.177 133.105 157.414C133.994 158.489 135.186 159.269 136.526 159.653C137.865 160.036 139.289 160.005 140.611 159.563C148.567 157.414 156.523 155.266 164.543 153.311C168.682 152.323 172.821 151.013 177.239 152.624C177.934 152.718 178.642 152.64 179.3 152.396C179.958 152.153 180.546 151.752 181.013 151.227C186.439 143.709 192.401 136.426 196.754 128.306C204.814 113.657 208.007 96.8168 205.868 80.2279C205.139 74.3632 201.579 64.6102 198.534 61.3018C198.148 63.6864 197.783 66.3072 197.29 68.9066C196.289 72.7108 196.756 76.7533 198.598 80.2279C201.051 84.6295 201.986 89.719 201.257 94.707C200.636 99.2613 199.113 103.45 195.06 106.114C191.286 108.52 188.626 107.403 188.969 103.064C189.404 97.7931 190.17 92.5552 191.264 87.3815C191.865 84.2451 193.023 81.2161 193.923 78.1441L192.915 77.7359C192.1 79.2827 191.221 80.7864 190.471 82.3546C186.417 90.7758 180.091 92.1936 172.006 92.1721C170.033 92.1721 168.189 91.3987 169.862 88.7349C174.644 80.636 180.284 73.6972 190.599 72.709C191.276 72.5999 191.919 72.3382 192.48 71.9438C193.041 71.5493 193.505 71.0323 193.837 70.4319C197.376 60.9366 195.231 53.5466 187.404 47.2308C186.121 46.1736 184.743 45.2387 183.286 44.4381C159.354 31.5486 136.107 33.3102 113.89 48.3694C105.998 53.4426 99.9101 60.887 96.4983 69.6371C94.8041 74.1698 94.6755 78.6381 97.6992 82.3976C101.731 87.403 106.277 92.0647 110.759 96.662C111.553 97.4998 113.461 97.4783 114.834 97.4568C121.16 97.4568 127.486 96.7909 133.77 97.0272C140.053 97.2635 145.972 99.3258 149.017 105.62C149.939 107.532 151.698 110.239 149.318 112.065C147.491 112.929 145.423 113.134 143.463 112.645C136.579 111.592 129.76 110.26 123.133 109.057C124.313 112.946 125.492 116.361 126.328 119.799C126.367 120.349 126.275 120.902 126.059 121.41C125.842 121.918 125.508 122.367 125.085 122.72C124.527 123.085 122.94 122.527 122.211 121.882C115.777 116.297 109.494 110.604 108.958 101.195C108.834 100.2 108.39 99.2723 107.693 98.5524C103.082 93.6115 98.3855 88.7564 93.6247 83.7295C94.3538 92.3225 95.5547 100.915 99.6293 108.671C102.481 114.106 105.655 119.412 110.888 122.999C120.603 129.745 131.497 131.721 143.056 130.883C143.498 130.789 143.916 130.605 144.285 130.342C144.654 130.08 144.965 129.745 145.2 129.358C148.567 123.665 154.035 121.002 159.89 118.939C165.744 116.877 171.149 115.137 176.832 113.397C178.206 113.163 179.605 113.112 180.992 113.246C181.079 114.804 180.905 116.365 180.477 117.865C176.888 125.098 170.614 130.635 162.999 133.29C162.378 133.504 161.734 133.633 161.134 133.87C160.533 134.106 160.297 134.321 160.576 134.17C164.265 136.49 168.103 138.703 171.706 141.26C172.136 141.71 172.454 142.257 172.633 142.854C172.812 143.452 172.847 144.083 172.736 144.697C172.585 145.406 170.956 146.179 169.926 146.222C166.13 146.684 162.292 146.684 158.496 146.222C152.813 145.083 147.237 143.214 144.943 136.77C144.661 136.339 144.288 135.975 143.851 135.704C143.414 135.433 142.923 135.262 142.412 135.201C139.453 134.815 136.45 134.729 133.47 134.471C122.511 133.461 112.518 130.175 104.412 122.29C104.626 123.579 104.819 124.847 105.055 126.136C105.876 129.622 105.895 133.249 105.112 136.744C104.328 140.239 102.761 143.509 100.53 146.308C98.6214 148.649 97.013 148.564 96.241 146.05C92.7962 136.45 92.8645 125.937 96.434 116.383C96.9247 115.331 97.1629 114.18 97.1294 113.019C97.0959 111.859 96.7916 110.723 96.241 109.702C91.6946 99.3902 89.1641 88.7779 91.0727 77.3277C92.4495 69.2001 95.784 61.5313 100.787 54.986C95.9622 58.638 91.33 62.376 86.9552 66.4147C84.3175 68.8637 80.5217 71.506 80.0714 74.535C79.621 77.2204 82.7949 80.6146 84.5319 83.6006C89.4 91.9358 89.6359 100.228 84.296 108.413C83.0093 110.411 81.6154 113.547 78.8275 112.344C77.3907 111.721 76.5544 108.542 76.297 106.436C75.5036 99.7769 75.0961 93.0744 74.5171 85.9852C73.1787 89.4483 70.7173 92.3604 67.5282 94.2538C64.3391 96.1472 60.6074 96.9121 56.9322 96.4256C55.5597 96.3182 53.2221 95.8671 53.072 95.1797C52.9241 93.6604 53.3193 92.1378 54.1872 90.8832C59.5056 82.9991 67.0542 77.6285 74.7744 72.3009C79.0634 69.3578 82.9021 65.8561 86.9338 62.6553C83.1809 62.1826 80.0499 62.5478 76.9404 62.4189C73.8647 62.3823 70.8273 61.7307 68.0065 60.5023C65.1856 59.2738 62.6381 57.4934 60.5135 55.2653C60.1197 54.7844 59.8305 54.2265 59.6643 53.6272C59.4981 53.028 59.4587 52.4005 59.5485 51.7851C59.6986 51.0762 61.2426 50.4102 62.272 50.1739C64.3909 49.7161 66.5417 49.4217 68.7055 49.2932C75.332 48.9065 82.366 47.9398 88.006 52.1718C92.7025 55.7379 95.8764 55.3297 100.251 51.8495C104.068 48.842 109.087 47.5531 113.118 44.6959C125.089 36.2314 139.45 31.8275 154.1 32.1286C171.663 32.6227 187.039 39.9268 201.279 49.7013C203.816 51.5783 206.237 53.6086 208.527 55.7809C210.307 57.3276 211.594 57.9291 213.846 55.7809C216.486 53.6458 219.495 52.0147 222.724 50.9688C230.766 48.1761 238.315 52.3651 246.078 53.3748C248.458 53.6756 248.201 55.5016 246.314 56.8765ZM220.579 105.405C223.432 108.563 226.713 111.356 230.401 114.858C231.088 105.126 222.981 94.8789 214.125 93.4825C213.506 93.5018 212.895 93.6329 212.323 93.8693C212.48 94.4852 212.718 95.0775 213.031 95.6308C215.604 98.9391 217.92 102.355 220.687 105.405H220.579ZM217.813 130.948C220.279 119.884 216.784 111.334 211.38 102.462C209.407 113.053 212.473 121.71 217.92 130.948H217.813ZM180.177 195.395C180.297 196.317 180.747 197.164 181.442 197.78C181.7 197.973 182.943 197.329 183.587 196.813C189.162 191.786 191.371 185.041 192.722 177.973C193.387 174.493 193.602 170.927 194.138 166.415C183.737 174.149 179.469 183.601 180.284 195.374L180.177 195.395ZM152.298 216.878C154.1 225.686 159.161 232.281 166.602 237.866C166.866 235.572 166.666 233.249 166.014 231.034C165.362 228.82 164.271 226.76 162.806 224.977C160.319 221.69 157.402 218.725 154.614 215.696C154 215.205 153.313 214.814 152.577 214.536C152.408 215.327 152.371 216.14 152.47 216.942L152.298 216.878ZM144.321 214.901C140.506 218.628 138.212 223.644 137.887 228.972C139.94 227.535 141.819 225.862 143.484 223.988C144.945 221.593 146.118 219.033 146.98 216.362C147.378 215.089 147.686 213.79 147.902 212.474C146.687 213.19 145.544 214.025 144.492 214.966L144.321 214.901ZM197.354 254.859C200.134 253.169 202.716 251.173 205.053 248.908C205.89 248.135 205.997 246.588 206.447 245.385L202.716 245.127C194.91 246.609 186.482 247.447 179.126 252.195C178.265 252.663 177.483 253.264 176.81 253.978C176.574 254.279 177.282 255.825 177.453 255.825C184.316 255.288 191.178 258.425 197.526 254.923L197.354 254.859ZM177.368 270.713C181.464 276.32 187.361 279.735 193.409 282.872C194.148 283.118 194.924 283.242 195.703 283.237C195.946 282.371 196.047 281.472 196.003 280.573C194.983 274.974 191.801 270.003 187.147 266.739C183.887 264.59 180.263 262.807 176.982 260.616C173.701 258.425 173.722 260.079 173.4 262.958C174.55 265.68 175.935 268.297 177.539 270.777L177.368 270.713ZM138.767 263.709C140.268 268.229 142.037 272.655 144.063 276.964C146.212 280.709 148.619 284.298 151.269 287.705C151.835 288.277 152.478 288.769 153.178 289.166L154.1 286.846C153.414 280.648 150.949 274.783 147.001 269.961C144.857 267.619 142.841 265.256 140.718 262.936C140.353 262.639 139.949 262.393 139.517 262.206C139.26 262.7 138.745 263.366 138.895 263.774L138.767 263.709ZM133.362 257.114C130.536 257.856 127.884 259.148 125.556 260.917C120.753 265.407 119.766 271.873 118.072 277.845C117.729 280.23 119.209 280.831 120.667 279.843C123.679 278.174 126.331 275.925 128.473 273.226C130.939 268.749 133.089 264.105 134.906 259.327C135.871 257.63 135.185 256.577 133.491 257.179L133.362 257.114ZM129.888 233.14C129.888 232.861 129.738 232.581 129.652 232.302C129.652 232.431 129.481 232.581 129.502 232.624C129.619 232.805 129.748 232.977 129.888 233.14ZM120.624 211.658C115.126 213.547 110.213 216.834 106.363 221.196C105.801 221.803 105.291 222.457 104.84 223.151C104.09 224.311 103.446 225.514 102.696 226.695L107.778 228.435C110.762 226.779 113.559 224.805 116.121 222.549C118.393 219.713 120.362 216.645 121.996 213.398C122.229 212.866 122.374 212.3 122.425 211.722C121.835 211.582 121.223 211.56 120.624 211.658ZM110.116 150.304C109.158 150.362 108.205 150.484 107.264 150.669C107.714 151.7 107.886 153.204 108.658 153.676C112.192 156 115.949 157.965 119.873 159.541C123.519 160.407 127.239 160.925 130.982 161.088L131.175 159.863C124.892 155.137 118.587 150.411 110.116 150.347V150.304ZM125.578 168.693C119.459 174.056 114.859 180.94 112.239 188.65C112.117 189.814 112.117 190.987 112.239 192.151C115.311 190.343 118.289 188.378 121.16 186.265C125.835 182.398 127.594 176.749 129.588 171.335C130.296 169.38 130.768 167.361 131.347 165.363C129.323 166.288 127.391 167.403 125.578 168.693ZM199.306 166.652C203.514 174.591 210.006 181.08 217.942 185.277C219.786 186.222 221.737 186.91 223.646 187.726C217.877 178.832 212.816 169.466 203.488 163.816C203.226 163.612 202.927 163.459 202.608 163.365C200.893 163.107 199.177 162.914 197.462 162.699C198.004 164.077 198.62 165.425 199.306 166.738V166.652ZM187.49 76.4254C184.662 77.2796 182.034 78.6931 179.762 80.5824C177.489 82.4716 175.618 84.7982 174.258 87.4245C174.129 87.6393 175.052 88.8423 175.566 88.8853C177.372 89.0929 179.2 88.8279 180.872 88.1163C182.545 87.4047 184.005 86.2707 185.109 84.8251C186.758 82.393 188.241 79.8523 189.548 77.2204C188.605 76.8337 187.94 76.3181 187.49 76.3181V76.4254ZM129.845 106.802C134.478 107.854 139.195 108.585 143.892 109.423C144.674 109.526 145.462 109.576 146.251 109.573C146.268 108.649 146.107 107.73 145.779 106.866C144.426 104.784 142.551 103.093 140.343 101.962C138.134 100.832 135.668 100.3 133.191 100.421C127.079 100.25 120.967 100.421 114.791 100.421C118.758 105.148 124.484 105.599 129.845 106.802ZM121.117 117.887L122.275 117.07C120.838 111.829 118.351 107.382 113.268 104.868L112.218 105.642L121.117 117.887ZM149.318 138.252C153.371 142.441 158.689 143.408 164.801 144.095L167.632 142.892C166.838 142.097 166.173 140.873 165.208 140.572C160.212 139.047 155.151 137.715 150.09 136.383C149.601 136.352 149.111 136.425 148.653 136.598C148.867 137.156 148.931 137.865 149.318 138.252ZM153.199 131.807C162.764 130.626 171.749 126.995 176.96 116.92C167.739 119.82 158.839 121.216 151.505 126.759C150.075 128.068 148.768 129.506 147.602 131.055C149.426 131.563 151.306 131.844 153.199 131.893V131.807ZM98.4498 143.515C103.425 136.34 103.468 128.821 98.8573 117.865C96.4459 126.256 96.3053 135.138 98.4498 143.601V143.515ZM68.3195 80.6146C64.4594 83.9658 60.8352 87.6178 57.1681 91.2054C56.715 91.8632 56.3676 92.5881 56.1387 93.3536L58.0258 93.8693C64.7381 93.0314 69.5418 90.0453 72.008 83.9014C72.9731 81.5168 73.788 79.0678 74.6672 76.6403C72.4385 77.7751 70.3143 79.105 68.3195 80.6146ZM79.3422 106.114C79.5512 106.788 79.8019 107.448 80.0928 108.091C80.6459 107.752 81.1447 107.332 81.5725 106.845C84.8965 101.367 86.4191 95.6093 83.717 89.4224C82.4303 86.5652 80.9077 83.8369 79.1278 80.3138C76.9644 88.8141 77.0235 97.7294 79.2993 106.2L79.3422 106.114ZM88.8639 55.8238C83.8028 51.9784 77.884 51.8281 71.9222 52.2792C69.2845 52.2792 66.6468 52.2792 64.009 52.2792C63.5453 52.3326 63.0909 52.4483 62.658 52.6229C62.9246 53.1176 63.2485 53.5791 63.623 53.9978C67.0159 57.1969 71.5317 58.9262 76.1898 58.8099C80.3073 58.8099 84.4033 58.4661 88.4993 58.2298C89.1445 58.1002 89.7712 57.891 90.365 57.6069C89.9201 56.9812 89.4017 56.4114 88.821 55.9097L88.8639 55.8238ZM194.845 84.5458C193.945 89.852 193.023 95.1582 192.208 100.486C192.214 101.406 192.366 102.32 192.658 103.193C193.624 102.714 194.508 102.083 195.274 101.324C199.07 95.9531 198.341 90.3031 196.518 84.6318L194.845 84.5458ZM227.999 81.2376C228.615 81.077 229.182 80.7671 229.651 80.3353C228.857 77.9078 228.536 74.9002 226.906 73.2031C223.526 69.9839 219.945 66.9846 216.183 64.2234C217.834 71.4845 223.217 76.1677 228.042 81.2376H227.999ZM215.497 63.7723L215.862 63.9442V63.7938C215.862 63.7938 215.626 63.7723 215.54 63.7723H215.497ZM216.784 57.8217C225.083 57.521 233.232 61.5596 241.231 56.4683C231.709 51.7851 222.51 52.2363 216.827 57.8217H216.784Z" fill="black" fill-opacity="0.1"/>
</g>
<defs>
<clipPath id="clip0_505_828">
<rect width="195" height="262" fill="white" transform="matrix(-0.866025 0.5 0.5 0.866025 169.437 0.800781)"/>
</clipPath>
</defs>
</svg>
